<?xml version="1.0" encoding="UTF-8"?>
<svg width="75px" height="75px" viewBox="0 0 75 75" version="1.1" xmlns="http://www.w3.org/2000/svg" xmlns:xlink="http://www.w3.org/1999/xlink">
    <title>Group 3</title>
    <g id="Page-1" stroke="none" stroke-width="1" fill="none" fill-rule="evenodd">
        <g id="Group-3">
            <rect id="Rectangle" fill="#FFFFFF" x="0" y="0" width="75" height="75" rx="33.5"></rect>
            <path d="M18,15 L18,55 C38.6666667,53.5185185 49,46.8518519 49,35 C49,23.1481481 38.6666667,16.4814815 18,15 Z" id="Path-2-Copy-3" stroke="#979797" stroke-width="4"></path>
            <g id="Group-4" transform="translate(32.000000, 18.000000)" stroke-width="4">
                <g id="Group-2" stroke="#FFFFFF">
                    <path d="M2,38 C18.6666667,36.6666667 27,30.6666667 27,20" id="Path-2-Copy-2" transform="translate(14.500000, 29.000000) scale(-1, 1) translate(-14.500000, -29.000000) "></path>
                    <path d="M0,21 C16.6666667,19.4444444 25,12.4444444 25,0" id="Path-2-Copy-2" transform="translate(12.500000, 10.500000) scale(-1, -1) translate(-12.500000, -10.500000) "></path>
                </g>
                <path d="M0,43 C16.6666667,41.6666667 25,35.6666667 25,25" id="Path-2-Copy-2" stroke="#FFFFFF" transform="translate(12.500000, 34.000000) scale(-1, 1) translate(-12.500000, -34.000000) "></path>
                <path d="M4,26 C20.6666667,24.4444444 29,17.4444444 29,5" id="Path-2-Copy-2" stroke="#FFFFFF" transform="translate(16.500000, 15.500000) scale(-1, -1) translate(-16.500000, -15.500000) "></path>
                <path d="M2,41 C18.6666667,39.6666667 27,33.6666667 27,23" id="Path-2-Copy-2" stroke="#979797" transform="translate(14.500000, 32.000000) scale(-1, 1) translate(-14.500000, -32.000000) "></path>
                <path d="M2,24 C18.6666667,22.3703704 27,15.037037 27,2" id="Path-2-Copy-2" stroke="#979797" transform="translate(14.500000, 13.000000) scale(-1, -1) translate(-14.500000, -13.000000) "></path>
            </g>
            <g id="Group-2" transform="translate(32.000000, 26.000000)"></g>
            <rect id="Rectangle" stroke="#979797" stroke-width="3" x="35.5" y="62.5" width="2" height="2"></rect>
            <rect id="Rectangle-Copy" stroke="#FFFFFF" stroke-width="3" x="17" y="19" width="2" height="2"></rect>
            <rect id="Rectangle-Copy-2" stroke="#FFFFFF" stroke-width="3" x="17" y="49" width="2" height="2"></rect>
        </g>
    </g>
</svg>